<svg xmlns="http://www.w3.org/2000/svg" xmlns:xlink="http://www.w3.org/1999/xlink" id="图层_1" x="0" y="0" version="1.1" viewBox="0 0 1080 720" xml:space="preserve" style="enable-background:new 0 0 1080 720"><style type="text/css">.st0{fill:url(#SVGID_1_)}.st1{fill:url(#SVGID_2_)}.st2{fill:url(#SVGID_3_)}.st3{fill:url(#SVGID_4_)}.st4{fill:url(#SVGID_5_)}.st5{fill:url(#SVGID_6_)}.st6,.st7{fill:#dadcf4;stroke:#b0b4e9;stroke-width:4}.st7{fill:none}.st8{fill:url(#SVGID_7_)}.st9{fill:url(#SVGID_8_)}.st10{fill:url(#SVGID_9_)}.st11{fill:url(#SVGID_10_)}.st12{fill:url(#SVGID_11_)}.st13{fill:url(#SVGID_12_)}.st14{fill:url(#SVGID_13_)}.st15{fill:url(#SVGID_14_)}.st16{fill:url(#SVGID_15_)}.st17{fill:url(#SVGID_16_)}</style><linearGradient id="SVGID_1_" x1="415.447" x2="577.915" y1="357.319" y2="194.851" gradientUnits="userSpaceOnUse"><stop offset=".324" style="stop-color:#ac9cf2"/><stop offset=".326" style="stop-color:#ac9cf2"/><stop offset=".465" style="stop-color:#b1b3ea"/><stop offset=".613" style="stop-color:#b4c3e5"/><stop offset=".78" style="stop-color:#b6cde2"/><stop offset="1" style="stop-color:#b7d0e1"/></linearGradient><polygon points="418.13 360 540 156.94 540 308.6" class="st0"/><linearGradient id="SVGID_2_" x1="395.021" x2="557.489" y1="357.319" y2="194.851" gradientTransform="matrix(-1 0 0 1 1059.5745 0)" gradientUnits="userSpaceOnUse"><stop offset=".324" style="stop-color:#b2dbf5"/><stop offset=".443" style="stop-color:#c4e3f4"/><stop offset=".598" style="stop-color:#d4eaf4"/><stop offset=".771" style="stop-color:#deeff3"/><stop offset="1" style="stop-color:#e1f0f3"/></linearGradient><polygon points="661.87 360 540 156.94 540 308.6" class="st1"/><linearGradient id="SVGID_3_" x1="471.745" x2="594.27" y1="369.411" y2="369.411" gradientUnits="userSpaceOnUse"><stop offset=".324" style="stop-color:#d6cdfb"/><stop offset=".428" style="stop-color:#d9d4fa"/><stop offset=".655" style="stop-color:#dcdef9"/><stop offset=".953" style="stop-color:#dde1f9"/></linearGradient><polygon points="540 308.13 418.13 359.54 540 430.69" class="st2"/><linearGradient id="SVGID_4_" x1="604.17" x2="726.695" y1="369.411" y2="369.411" gradientTransform="matrix(-1 0 0 1 1212.4255 0)" gradientUnits="userSpaceOnUse"><stop offset=".324" style="stop-color:#ecf2f2"/><stop offset=".365" style="stop-color:#eef4f3"/><stop offset=".619" style="stop-color:#f8faf6"/><stop offset=".953" style="stop-color:#fbfcf7"/></linearGradient><polygon points="540 308.13 661.87 359.54 540 430.69" class="st3"/><linearGradient id="SVGID_5_" x1="418.128" x2="540" y1="471.67" y2="471.67" gradientUnits="userSpaceOnUse"><stop offset=".324" style="stop-color:#6e89d3"/><stop offset=".326" style="stop-color:#6e89d3"/><stop offset=".5" style="stop-color:#6a83e3"/><stop offset=".695" style="stop-color:#6880ed"/><stop offset=".953" style="stop-color:#677ff0"/></linearGradient><polygon points="418.13 383.34 540 560 540 454.49" class="st4"/><linearGradient id="SVGID_6_" x1="788.851" x2="910.723" y1="471.67" y2="471.67" gradientTransform="matrix(-1 0 0 1 1450.7234 0)" gradientUnits="userSpaceOnUse"><stop offset=".324" style="stop-color:#c4c5fc"/><stop offset=".544" style="stop-color:#c8cbf8"/><stop offset=".953" style="stop-color:#cacef6"/></linearGradient><polygon points="661.87 383.34 540 560 540 454.49" class="st5"/><line x1="474.31" x2="480.95" y1="268.76" y2="389.79" class="st6"/><line x1="602.62" x2="595.98" y1="268.76" y2="389.79" class="st6"/><line x1="540.18" x2="480.96" y1="308.96" y2="388.78" class="st7"/><line x1="537.86" x2="597.08" y1="308.96" y2="388.78" class="st7"/><g><g><linearGradient id="SVGID_7_" x1="468.089" x2="481.823" y1="282.51" y2="255.855" gradientUnits="userSpaceOnUse"><stop offset="0" style="stop-color:#718bd4"/><stop offset=".012" style="stop-color:#758ed5"/><stop offset=".058" style="stop-color:#7790d6"/><stop offset=".099" style="stop-color:#7a92d7"/><stop offset=".259" style="stop-color:#889ddd"/><stop offset=".473" style="stop-color:#9aaae4"/><stop offset=".695" style="stop-color:#aeb9ec"/><stop offset="1" style="stop-color:#c6cbf5"/></linearGradient><circle cx="474.63" cy="269.82" r="14.99" class="st8"/><radialGradient id="SVGID_8_" cx="406.412" cy="425.219" r="3.241" gradientTransform="matrix(0.7431 0.6691 -0.6691 0.7431 464.6135 -326.5226)" gradientUnits="userSpaceOnUse"><stop offset="0" style="stop-color:#dadcf4"/><stop offset=".008" style="stop-color:#dadcf4"/><stop offset=".058" style="stop-color:#dadcf4"/><stop offset=".099" style="stop-color:#dadcf4"/><stop offset=".473" style="stop-color:#dadcf4"/><stop offset="1" style="stop-color:#dadcf4"/></radialGradient><path d="M485.12,264.13c-0.79,0.88-2.85,0.32-4.6-1.25c-1.75-1.57-2.52-3.56-1.73-4.44s2.85-0.32,4.6,1.25 C485.14,261.26,485.91,263.25,485.12,264.13z" class="st9"/></g><g><linearGradient id="SVGID_9_" x1="474.419" x2="488.153" y1="401.468" y2="374.813" gradientUnits="userSpaceOnUse"><stop offset="0" style="stop-color:#718bd4"/><stop offset=".012" style="stop-color:#758ed5"/><stop offset=".058" style="stop-color:#7790d6"/><stop offset=".099" style="stop-color:#7a92d7"/><stop offset=".259" style="stop-color:#889ddd"/><stop offset=".473" style="stop-color:#9aaae4"/><stop offset=".695" style="stop-color:#aeb9ec"/><stop offset="1" style="stop-color:#c6cbf5"/></linearGradient><circle cx="480.96" cy="388.78" r="14.99" class="st10"/><radialGradient id="SVGID_10_" cx="490.714" cy="509.385" r="3.241" gradientTransform="matrix(0.7431 0.6691 -0.6691 0.7431 464.6135 -326.5226)" gradientUnits="userSpaceOnUse"><stop offset="0" style="stop-color:#dadcf4"/><stop offset=".008" style="stop-color:#dadcf4"/><stop offset=".058" style="stop-color:#dadcf4"/><stop offset=".099" style="stop-color:#dadcf4"/><stop offset=".473" style="stop-color:#dadcf4"/><stop offset="1" style="stop-color:#dadcf4"/></radialGradient><path d="M491.45,383.09c-0.79,0.88-2.85,0.32-4.6-1.25c-1.75-1.57-2.52-3.56-1.73-4.44s2.85-0.32,4.6,1.25 C491.47,380.22,492.24,382.21,491.45,383.09z" class="st11"/></g></g><g><linearGradient id="SVGID_11_" x1="596.459" x2="610.193" y1="282.51" y2="255.855" gradientUnits="userSpaceOnUse"><stop offset="0" style="stop-color:#718bd4"/><stop offset=".012" style="stop-color:#758ed5"/><stop offset=".058" style="stop-color:#7790d6"/><stop offset=".099" style="stop-color:#7a92d7"/><stop offset=".259" style="stop-color:#889ddd"/><stop offset=".473" style="stop-color:#9aaae4"/><stop offset=".695" style="stop-color:#aeb9ec"/><stop offset="1" style="stop-color:#c6cbf5"/></linearGradient><circle cx="603" cy="269.82" r="14.99" class="st12"/><radialGradient id="SVGID_12_" cx="501.81" cy="339.322" r="3.241" gradientTransform="matrix(0.7431 0.6691 -0.6691 0.7431 464.6135 -326.5226)" gradientUnits="userSpaceOnUse"><stop offset="0" style="stop-color:#dadcf4"/><stop offset=".008" style="stop-color:#dadcf4"/><stop offset=".058" style="stop-color:#dadcf4"/><stop offset=".099" style="stop-color:#dadcf4"/><stop offset=".473" style="stop-color:#dadcf4"/><stop offset="1" style="stop-color:#dadcf4"/></radialGradient><path d="M613.49,264.13c-0.79,0.88-2.85,0.32-4.6-1.25c-1.75-1.57-2.52-3.56-1.73-4.44s2.85-0.32,4.6,1.25 C613.51,261.26,614.28,263.25,613.49,264.13z" class="st13"/></g><g><linearGradient id="SVGID_13_" x1="589.441" x2="603.175" y1="401.468" y2="374.813" gradientUnits="userSpaceOnUse"><stop offset="0" style="stop-color:#718bd4"/><stop offset=".012" style="stop-color:#758ed5"/><stop offset=".058" style="stop-color:#7790d6"/><stop offset=".099" style="stop-color:#7a92d7"/><stop offset=".259" style="stop-color:#889ddd"/><stop offset=".473" style="stop-color:#9aaae4"/><stop offset=".695" style="stop-color:#aeb9ec"/><stop offset="1" style="stop-color:#c6cbf5"/></linearGradient><circle cx="595.98" cy="388.78" r="14.99" class="st14"/><radialGradient id="SVGID_14_" cx="576.192" cy="432.421" r="3.241" gradientTransform="matrix(0.7431 0.6691 -0.6691 0.7431 464.6135 -326.5226)" gradientUnits="userSpaceOnUse"><stop offset="0" style="stop-color:#dadcf4"/><stop offset=".008" style="stop-color:#dadcf4"/><stop offset=".058" style="stop-color:#dadcf4"/><stop offset=".099" style="stop-color:#dadcf4"/><stop offset=".473" style="stop-color:#dadcf4"/><stop offset="1" style="stop-color:#dadcf4"/></radialGradient><path d="M606.47,383.09c-0.79,0.88-2.85,0.32-4.6-1.25c-1.75-1.57-2.52-3.56-1.73-4.44s2.85-0.32,4.6,1.25 C606.49,380.22,607.27,382.21,606.47,383.09z" class="st15"/></g><g><linearGradient id="SVGID_15_" x1="533.641" x2="547.375" y1="321.648" y2="294.994" gradientUnits="userSpaceOnUse"><stop offset="0" style="stop-color:#718bd4"/><stop offset=".012" style="stop-color:#758ed5"/><stop offset=".058" style="stop-color:#7790d6"/><stop offset=".099" style="stop-color:#7a92d7"/><stop offset=".259" style="stop-color:#889ddd"/><stop offset=".473" style="stop-color:#9aaae4"/><stop offset=".695" style="stop-color:#aeb9ec"/><stop offset="1" style="stop-color:#c6cbf5"/></linearGradient><circle cx="540.18" cy="308.96" r="14.99" class="st16"/><radialGradient id="SVGID_16_" cx="481.315" cy="410.441" r="3.241" gradientTransform="matrix(0.7431 0.6691 -0.6691 0.7431 464.6135 -326.5226)" gradientUnits="userSpaceOnUse"><stop offset="0" style="stop-color:#dadcf4"/><stop offset=".008" style="stop-color:#dadcf4"/><stop offset=".058" style="stop-color:#dadcf4"/><stop offset=".099" style="stop-color:#dadcf4"/><stop offset=".473" style="stop-color:#dadcf4"/><stop offset="1" style="stop-color:#dadcf4"/></radialGradient><path d="M550.67,303.27c-0.79,0.88-2.85,0.32-4.6-1.25c-1.75-1.57-2.52-3.56-1.73-4.44s2.85-0.32,4.6,1.25 C550.69,300.4,551.47,302.39,550.67,303.27z" class="st17"/></g></svg>